<mxfile host="app.diagrams.net" agent="Mozilla/5.0 (Macintosh; Intel Mac OS X 10.15; rv:132.0) Gecko/20100101 Firefox/132.0" version="24.8.8">
  <diagram name="Page-1" id="a101azhtH34TolMdExZC">
    <mxGraphModel dx="936" dy="714" grid="1" gridSize="10" guides="1" tooltips="1" connect="1" arrows="1" fold="1" page="1" pageScale="1" pageWidth="850" pageHeight="1100" math="0" shadow="0">
      <root>
        <mxCell id="0" />
        <mxCell id="1" parent="0" />
        <mxCell id="AIBRcf1KD7g4gihNucIM-34" value="" style="rounded=1;whiteSpace=wrap;html=1;fillColor=#d5e8d4;strokeColor=#82b366;" vertex="1" parent="1">
          <mxGeometry x="495" y="170" width="220" height="490" as="geometry" />
        </mxCell>
        <mxCell id="AIBRcf1KD7g4gihNucIM-33" value="" style="rounded=1;whiteSpace=wrap;html=1;fillColor=#fff2cc;strokeColor=#d6b656;" vertex="1" parent="1">
          <mxGeometry x="320" y="170" width="130" height="490" as="geometry" />
        </mxCell>
        <mxCell id="AIBRcf1KD7g4gihNucIM-32" value="" style="rounded=1;whiteSpace=wrap;html=1;fillColor=#f8cecc;strokeColor=#b85450;" vertex="1" parent="1">
          <mxGeometry x="160" y="170" width="130" height="490" as="geometry" />
        </mxCell>
        <mxCell id="AIBRcf1KD7g4gihNucIM-4" value="g" style="edgeStyle=orthogonalEdgeStyle;rounded=0;orthogonalLoop=1;jettySize=auto;html=1;entryX=0.5;entryY=0;entryDx=0;entryDy=0;" edge="1" parent="1" source="AIBRcf1KD7g4gihNucIM-1" target="AIBRcf1KD7g4gihNucIM-3">
          <mxGeometry relative="1" as="geometry" />
        </mxCell>
        <mxCell id="AIBRcf1KD7g4gihNucIM-1" value="Receive Job" style="whiteSpace=wrap;html=1;aspect=fixed;" vertex="1" parent="1">
          <mxGeometry x="345" y="200" width="80" height="80" as="geometry" />
        </mxCell>
        <mxCell id="AIBRcf1KD7g4gihNucIM-8" style="edgeStyle=orthogonalEdgeStyle;rounded=0;orthogonalLoop=1;jettySize=auto;html=1;" edge="1" parent="1" source="AIBRcf1KD7g4gihNucIM-3" target="AIBRcf1KD7g4gihNucIM-5">
          <mxGeometry relative="1" as="geometry" />
        </mxCell>
        <mxCell id="AIBRcf1KD7g4gihNucIM-14" style="edgeStyle=orthogonalEdgeStyle;rounded=0;orthogonalLoop=1;jettySize=auto;html=1;entryX=0.5;entryY=0;entryDx=0;entryDy=0;" edge="1" parent="1" source="AIBRcf1KD7g4gihNucIM-3" target="AIBRcf1KD7g4gihNucIM-13">
          <mxGeometry relative="1" as="geometry" />
        </mxCell>
        <mxCell id="AIBRcf1KD7g4gihNucIM-29" style="edgeStyle=orthogonalEdgeStyle;rounded=0;orthogonalLoop=1;jettySize=auto;html=1;entryX=1;entryY=0.25;entryDx=0;entryDy=0;" edge="1" parent="1" source="AIBRcf1KD7g4gihNucIM-3" target="AIBRcf1KD7g4gihNucIM-25">
          <mxGeometry relative="1" as="geometry">
            <mxPoint x="270" y="360" as="targetPoint" />
            <Array as="points">
              <mxPoint x="265" y="360" />
            </Array>
          </mxGeometry>
        </mxCell>
        <mxCell id="AIBRcf1KD7g4gihNucIM-3" value="Begin thread" style="whiteSpace=wrap;html=1;aspect=fixed;" vertex="1" parent="1">
          <mxGeometry x="345" y="320" width="80" height="80" as="geometry" />
        </mxCell>
        <mxCell id="AIBRcf1KD7g4gihNucIM-9" style="edgeStyle=orthogonalEdgeStyle;rounded=0;orthogonalLoop=1;jettySize=auto;html=1;entryX=0.5;entryY=0;entryDx=0;entryDy=0;" edge="1" parent="1" source="AIBRcf1KD7g4gihNucIM-5" target="AIBRcf1KD7g4gihNucIM-6">
          <mxGeometry relative="1" as="geometry" />
        </mxCell>
        <mxCell id="AIBRcf1KD7g4gihNucIM-10" style="edgeStyle=orthogonalEdgeStyle;rounded=0;orthogonalLoop=1;jettySize=auto;html=1;" edge="1" parent="1" source="AIBRcf1KD7g4gihNucIM-5" target="AIBRcf1KD7g4gihNucIM-7">
          <mxGeometry relative="1" as="geometry">
            <Array as="points">
              <mxPoint x="665" y="360" />
            </Array>
          </mxGeometry>
        </mxCell>
        <mxCell id="AIBRcf1KD7g4gihNucIM-5" value="&lt;div&gt;Check Blender&lt;/div&gt;&lt;div&gt;&lt;br&gt;&lt;/div&gt;" style="whiteSpace=wrap;html=1;aspect=fixed;" vertex="1" parent="1">
          <mxGeometry x="505" y="320" width="80" height="80" as="geometry" />
        </mxCell>
        <mxCell id="AIBRcf1KD7g4gihNucIM-17" style="edgeStyle=orthogonalEdgeStyle;rounded=0;orthogonalLoop=1;jettySize=auto;html=1;entryX=0.5;entryY=0;entryDx=0;entryDy=0;" edge="1" parent="1" source="AIBRcf1KD7g4gihNucIM-6" target="AIBRcf1KD7g4gihNucIM-16">
          <mxGeometry relative="1" as="geometry" />
        </mxCell>
        <mxCell id="AIBRcf1KD7g4gihNucIM-40" style="edgeStyle=orthogonalEdgeStyle;rounded=0;orthogonalLoop=1;jettySize=auto;html=1;entryX=1;entryY=0.5;entryDx=0;entryDy=0;" edge="1" parent="1" source="AIBRcf1KD7g4gihNucIM-6" target="AIBRcf1KD7g4gihNucIM-13">
          <mxGeometry relative="1" as="geometry" />
        </mxCell>
        <mxCell id="AIBRcf1KD7g4gihNucIM-6" value="Run Blender" style="whiteSpace=wrap;html=1;aspect=fixed;" vertex="1" parent="1">
          <mxGeometry x="505" y="440" width="80" height="80" as="geometry" />
        </mxCell>
        <mxCell id="AIBRcf1KD7g4gihNucIM-11" style="edgeStyle=orthogonalEdgeStyle;rounded=0;orthogonalLoop=1;jettySize=auto;html=1;entryX=1;entryY=0.5;entryDx=0;entryDy=0;" edge="1" parent="1" source="AIBRcf1KD7g4gihNucIM-7" target="AIBRcf1KD7g4gihNucIM-6">
          <mxGeometry relative="1" as="geometry">
            <Array as="points">
              <mxPoint x="665" y="480" />
            </Array>
          </mxGeometry>
        </mxCell>
        <mxCell id="AIBRcf1KD7g4gihNucIM-41" style="edgeStyle=orthogonalEdgeStyle;rounded=0;orthogonalLoop=1;jettySize=auto;html=1;entryX=1;entryY=0.25;entryDx=0;entryDy=0;" edge="1" parent="1" source="AIBRcf1KD7g4gihNucIM-7" target="AIBRcf1KD7g4gihNucIM-13">
          <mxGeometry relative="1" as="geometry">
            <Array as="points">
              <mxPoint x="480" y="420" />
              <mxPoint x="480" y="460" />
            </Array>
          </mxGeometry>
        </mxCell>
        <mxCell id="AIBRcf1KD7g4gihNucIM-7" value="&lt;div&gt;Download and install &lt;br&gt;&lt;/div&gt;" style="whiteSpace=wrap;html=1;aspect=fixed;" vertex="1" parent="1">
          <mxGeometry x="625" y="380" width="80" height="80" as="geometry" />
        </mxCell>
        <mxCell id="AIBRcf1KD7g4gihNucIM-24" style="edgeStyle=orthogonalEdgeStyle;rounded=0;orthogonalLoop=1;jettySize=auto;html=1;entryX=1;entryY=0.5;entryDx=0;entryDy=0;" edge="1" parent="1" source="AIBRcf1KD7g4gihNucIM-12" target="AIBRcf1KD7g4gihNucIM-22">
          <mxGeometry relative="1" as="geometry" />
        </mxCell>
        <mxCell id="AIBRcf1KD7g4gihNucIM-12" value="&lt;div&gt;Stop Thread&lt;/div&gt;" style="whiteSpace=wrap;html=1;aspect=fixed;" vertex="1" parent="1">
          <mxGeometry x="345" y="560" width="80" height="80" as="geometry" />
        </mxCell>
        <mxCell id="AIBRcf1KD7g4gihNucIM-15" style="edgeStyle=orthogonalEdgeStyle;rounded=0;orthogonalLoop=1;jettySize=auto;html=1;entryX=0.5;entryY=0;entryDx=0;entryDy=0;" edge="1" parent="1" source="AIBRcf1KD7g4gihNucIM-13" target="AIBRcf1KD7g4gihNucIM-12">
          <mxGeometry relative="1" as="geometry" />
        </mxCell>
        <mxCell id="AIBRcf1KD7g4gihNucIM-28" style="edgeStyle=orthogonalEdgeStyle;rounded=0;orthogonalLoop=1;jettySize=auto;html=1;entryX=1;entryY=0.75;entryDx=0;entryDy=0;" edge="1" parent="1" source="AIBRcf1KD7g4gihNucIM-13" target="AIBRcf1KD7g4gihNucIM-25">
          <mxGeometry relative="1" as="geometry">
            <Array as="points">
              <mxPoint x="310" y="475" />
              <mxPoint x="310" y="475" />
            </Array>
          </mxGeometry>
        </mxCell>
        <mxCell id="AIBRcf1KD7g4gihNucIM-13" value="&lt;div&gt;Poll Message queue&lt;/div&gt;" style="whiteSpace=wrap;html=1;aspect=fixed;" vertex="1" parent="1">
          <mxGeometry x="345" y="440" width="80" height="80" as="geometry" />
        </mxCell>
        <mxCell id="AIBRcf1KD7g4gihNucIM-18" style="edgeStyle=orthogonalEdgeStyle;rounded=0;orthogonalLoop=1;jettySize=auto;html=1;entryX=1;entryY=0.5;entryDx=0;entryDy=0;" edge="1" parent="1" source="AIBRcf1KD7g4gihNucIM-16" target="AIBRcf1KD7g4gihNucIM-12">
          <mxGeometry relative="1" as="geometry" />
        </mxCell>
        <mxCell id="AIBRcf1KD7g4gihNucIM-42" style="edgeStyle=orthogonalEdgeStyle;rounded=0;orthogonalLoop=1;jettySize=auto;html=1;exitX=0;exitY=0.25;exitDx=0;exitDy=0;entryX=1;entryY=0.75;entryDx=0;entryDy=0;" edge="1" parent="1" source="AIBRcf1KD7g4gihNucIM-16" target="AIBRcf1KD7g4gihNucIM-13">
          <mxGeometry relative="1" as="geometry" />
        </mxCell>
        <mxCell id="AIBRcf1KD7g4gihNucIM-16" value="&lt;div&gt;Close Blender after Render complete&lt;/div&gt;" style="whiteSpace=wrap;html=1;aspect=fixed;" vertex="1" parent="1">
          <mxGeometry x="505" y="560" width="80" height="80" as="geometry" />
        </mxCell>
        <mxCell id="AIBRcf1KD7g4gihNucIM-23" style="edgeStyle=orthogonalEdgeStyle;rounded=0;orthogonalLoop=1;jettySize=auto;html=1;" edge="1" parent="1" source="AIBRcf1KD7g4gihNucIM-21" target="AIBRcf1KD7g4gihNucIM-1">
          <mxGeometry relative="1" as="geometry" />
        </mxCell>
        <mxCell id="AIBRcf1KD7g4gihNucIM-26" style="edgeStyle=orthogonalEdgeStyle;rounded=0;orthogonalLoop=1;jettySize=auto;html=1;entryX=0.5;entryY=0;entryDx=0;entryDy=0;" edge="1" parent="1" source="AIBRcf1KD7g4gihNucIM-21" target="AIBRcf1KD7g4gihNucIM-25">
          <mxGeometry relative="1" as="geometry" />
        </mxCell>
        <mxCell id="AIBRcf1KD7g4gihNucIM-21" value="&lt;div&gt;NetworkNode&lt;/div&gt;&lt;div&gt;(Initial)&lt;/div&gt;" style="whiteSpace=wrap;html=1;aspect=fixed;" vertex="1" parent="1">
          <mxGeometry x="185" y="200" width="80" height="80" as="geometry" />
        </mxCell>
        <mxCell id="AIBRcf1KD7g4gihNucIM-22" value="&lt;div&gt;NetworkNode&lt;/div&gt;&lt;div&gt;(Complete)&lt;br&gt;&lt;/div&gt;" style="whiteSpace=wrap;html=1;aspect=fixed;" vertex="1" parent="1">
          <mxGeometry x="185" y="560" width="80" height="80" as="geometry" />
        </mxCell>
        <mxCell id="AIBRcf1KD7g4gihNucIM-27" style="edgeStyle=orthogonalEdgeStyle;rounded=0;orthogonalLoop=1;jettySize=auto;html=1;entryX=0.5;entryY=0;entryDx=0;entryDy=0;" edge="1" parent="1" source="AIBRcf1KD7g4gihNucIM-25" target="AIBRcf1KD7g4gihNucIM-22">
          <mxGeometry relative="1" as="geometry" />
        </mxCell>
        <mxCell id="AIBRcf1KD7g4gihNucIM-25" value="&lt;div&gt;NetworkNode&lt;/div&gt;&lt;div&gt;(Working)&lt;/div&gt;" style="whiteSpace=wrap;html=1;" vertex="1" parent="1">
          <mxGeometry x="185" y="310" width="80" height="220" as="geometry" />
        </mxCell>
        <mxCell id="AIBRcf1KD7g4gihNucIM-35" value="&lt;div align=&quot;center&quot;&gt;&lt;b&gt;&lt;font style=&quot;font-size: 15px;&quot;&gt;Network Service&lt;/font&gt;&lt;/b&gt;&lt;/div&gt;" style="text;strokeColor=none;fillColor=none;align=center;verticalAlign=middle;spacingLeft=4;spacingRight=4;overflow=hidden;points=[[0,0.5],[1,0.5]];portConstraint=eastwest;rotatable=0;whiteSpace=wrap;html=1;" vertex="1" parent="1">
          <mxGeometry x="160" y="120" width="130" height="30" as="geometry" />
        </mxCell>
        <mxCell id="AIBRcf1KD7g4gihNucIM-37" value="&lt;b&gt;&lt;font style=&quot;font-size: 15px;&quot;&gt;Application Service&lt;br&gt;&lt;/font&gt;&lt;/b&gt;" style="text;strokeColor=none;fillColor=none;align=center;verticalAlign=middle;spacingLeft=4;spacingRight=4;overflow=hidden;points=[[0,0.5],[1,0.5]];portConstraint=eastwest;rotatable=0;whiteSpace=wrap;html=1;" vertex="1" parent="1">
          <mxGeometry x="320" y="120" width="130" height="50" as="geometry" />
        </mxCell>
        <mxCell id="AIBRcf1KD7g4gihNucIM-38" value="&lt;b&gt;&lt;font style=&quot;font-size: 15px;&quot;&gt;Blender Library&lt;br&gt;&lt;/font&gt;&lt;/b&gt;" style="text;strokeColor=none;fillColor=none;align=center;verticalAlign=middle;spacingLeft=4;spacingRight=4;overflow=hidden;points=[[0,0.5],[1,0.5]];portConstraint=eastwest;rotatable=0;whiteSpace=wrap;html=1;" vertex="1" parent="1">
          <mxGeometry x="540" y="140" width="130" height="30" as="geometry" />
        </mxCell>
        <mxCell id="AIBRcf1KD7g4gihNucIM-43" value="Timeline of Execution" style="text;strokeColor=none;fillColor=none;align=center;verticalAlign=middle;spacingLeft=4;spacingRight=4;overflow=hidden;points=[[0,0.5],[1,0.5]];portConstraint=eastwest;rotatable=0;whiteSpace=wrap;html=1;direction=east;glass=0;" vertex="1" parent="1">
          <mxGeometry x="30" y="120" width="110" height="30" as="geometry" />
        </mxCell>
        <mxCell id="AIBRcf1KD7g4gihNucIM-44" value="" style="shape=flexArrow;endArrow=classic;html=1;rounded=0;fillColor=none;gradientColor=#000000;" edge="1" parent="1">
          <mxGeometry width="50" height="50" relative="1" as="geometry">
            <mxPoint x="90" y="160" as="sourcePoint" />
            <mxPoint x="90" y="660" as="targetPoint" />
          </mxGeometry>
        </mxCell>
      </root>
    </mxGraphModel>
  </diagram>
</mxfile>
